<svg width="25" height="24" viewBox="0 0 25 24" fill="none" xmlns="http://www.w3.org/2000/svg">
<defs>
  <filter id="f0i_w" x="0.333" y="1.5" width="17.8" height="19.12" filterUnits="userSpaceOnUse" color-interpolation-filters="sRGB">
    <feFlood flood-opacity="0" result="BackgroundImageFix"/>
    <feBlend mode="normal" in="SourceGraphic" in2="BackgroundImageFix" result="shape"/>
    <feColorMatrix in="SourceAlpha" type="matrix" values="0 0 0 0 0 0 0 0 0 0 0 0 0 0 0 0 0 0 127 0" result="hardAlpha"/>
    <feOffset dy="1"/>
    <feGaussianBlur stdDeviation="0.5"/>
    <feComposite in2="hardAlpha" operator="arithmetic" k2="-1" k3="1"/>
    <feColorMatrix type="matrix" values="0 0 0 0 1 0 0 0 0 1 0 0 0 0 1 0 0 0 0.25 0"/>
    <feBlend mode="normal" in2="shape" result="effect1"/>
  </filter>
  <filter id="f1i_w" x="-0.4" y="0.38" width="25.8" height="26.12" filterUnits="userSpaceOnUse" color-interpolation-filters="sRGB">
    <feFlood flood-opacity="0" result="BackgroundImageFix"/>
    <feBlend mode="normal" in="SourceGraphic" in2="BackgroundImageFix" result="shape"/>
    <feColorMatrix in="SourceAlpha" type="matrix" values="0 0 0 0 0 0 0 0 0 0 0 0 0 0 0 0 0 0 127 0" result="hardAlpha"/>
    <feOffset dy="3.667"/>
    <feGaussianBlur stdDeviation="1.833"/>
    <feComposite in2="hardAlpha" operator="arithmetic" k2="-1" k3="1"/>
    <feColorMatrix type="matrix" values="0 0 0 0 1 0 0 0 0 1 0 0 0 0 1 0 0 0 0.25 0"/>
    <feBlend mode="normal" in2="shape" result="effect1"/>
  </filter>
  <filter id="f2d_w" x="-2.43" y="-12" width="40.85" height="41.02" filterUnits="userSpaceOnUse" color-interpolation-filters="sRGB">
    <feFlood flood-opacity="0" result="BackgroundImageFix"/>
    <feColorMatrix in="SourceAlpha" type="matrix" values="0 0 0 0 0 0 0 0 0 0 0 0 0 0 0 0 0 0 127 0" result="hardAlpha"/>
    <feOffset dx="-3" dy="1"/>
    <feGaussianBlur stdDeviation="2"/>
    <feColorMatrix type="matrix" values="0 0 0 0 0.795 0 0 0 0 0.697 0 0 0 0 0.142 0 0 0 0.3 0"/>
    <feBlend mode="normal" in2="BackgroundImageFix" result="effect1_dropShadow"/>
    <feBlend mode="normal" in="SourceGraphic" in2="effect1_dropShadow" result="shape"/>
  </filter>
  <filter id="f3d_w" x="-4.21" y="-2.85" width="33.05" height="33.11" filterUnits="userSpaceOnUse" color-interpolation-filters="sRGB">
    <feFlood flood-opacity="0" result="BackgroundImageFix"/>
    <feColorMatrix in="SourceAlpha" type="matrix" values="0 0 0 0 0 0 0 0 0 0 0 0 0 0 0 0 0 0 127 0" result="hardAlpha"/>
    <feOffset dx="5" dy="5"/>
    <feGaussianBlur stdDeviation="5"/>
    <feColorMatrix type="matrix" values="0 0 0 0 1 0 0 0 0 0.525 0 0 0 0 0.137 0 0 0 0.5 0"/>
    <feBlend mode="normal" in2="BackgroundImageFix" result="effect1_dropShadow"/>
    <feBlend mode="normal" in="SourceGraphic" in2="effect1_dropShadow" result="shape"/>
  </filter>
  <clipPath id="bgblur1_w_clip" transform="translate(0.4 -0.38)">
    <path d="M3.60163 13.442C3.60163 8.43931 7.5855 4.38405 12.5001 4.38405C17.4148 4.38405 21.3987 8.43931 21.3987 13.442C21.3987 18.4438 17.4148 22.5 12.5001 22.5C7.58549 22.5 3.60163 18.4438 3.60163 13.442Z"/>
  </clipPath>
  <clipPath id="clip0_w">
    <rect width="24" height="21" fill="white" transform="translate(0.333 1.5)"/>
  </clipPath>
  <linearGradient id="g0_w" x1="9.23152" y1="1.5" x2="9.23152" y2="19.616" gradientUnits="userSpaceOnUse">
    <stop stop-color="#BAA800"/>
    <stop offset="1" stop-color="#544C00"/>
  </linearGradient>
  <linearGradient id="g1_w" x1="23.333" y1="5.929" x2="4.161" y2="3.235" gradientUnits="userSpaceOnUse">
    <stop stop-color="white" stop-opacity="0.2"/>
    <stop offset="1" stop-color="white"/>
  </linearGradient>
  <linearGradient id="g2_w" x1="13.628" y1="12.709" x2="8.468" y2="12.526" gradientUnits="userSpaceOnUse">
    <stop stop-color="white"/>
    <stop offset="1" stop-color="white" stop-opacity="0.2"/>
  </linearGradient>
  <linearGradient id="g3_w" x1="11.279" y1="12.51" x2="13.267" y2="14.929" gradientUnits="userSpaceOnUse">
    <stop stop-color="white" stop-opacity="0.25"/>
    <stop offset="1" stop-color="white" stop-opacity="0"/>
  </linearGradient>
</defs>
<g clip-path="url(#clip0_w)">
  <g filter="url(#f0i_w)">
    <path d="M18.13 10.558C18.13 15.5607 14.1462 19.6159 9.23152 19.6159C4.31687 19.6159 0.333008 15.5607 0.333008 10.558C0.333008 5.55616 4.31687 1.5 9.23152 1.5C14.1462 1.5 18.13 5.55616 18.13 10.558Z" fill="url(#g0_w)"/>
  </g>
  <foreignObject x="-0.4" y="0.38" width="25.8" height="26.12">
    <div xmlns="http://www.w3.org/1999/xhtml" style="backdrop-filter:blur(4px);-webkit-backdrop-filter:blur(4px);clip-path:url(#bgblur1_w_clip);height:100%;width:100%;background-color:rgba(255,255,255,0.16);border:1px solid rgba(255,255,255,0.28);box-shadow:inset 0 1px 0 rgba(255,255,255,0.36)"></div>
  </foreignObject>
  <g filter="url(#f1i_w)">
    <path d="M3.60163 13.442C3.60163 8.43931 7.5855 4.38405 12.5001 4.38405C17.4148 4.38405 21.3987 8.43931 21.3987 13.442C21.3987 18.4438 17.4148 22.5 12.5001 22.5C7.58549 22.5 3.60163 18.4438 3.60163 13.442Z" fill="#F7EE9A" fill-opacity="0.35"/>
  </g>
  <g filter="url(#f2d_w)">
    <path d="M13.9303 3.01052C13.6839 2.97357 13.4334 3.03349 13.2341 3.17706C13.0348 3.32062 12.903 3.53604 12.8678 3.77582L12.8535 3.91706L12.5763 12.5447C12.5463 12.8286 12.6407 13.1128 12.8364 13.3275C13.032 13.5421 13.3108 13.6673 13.6041 13.6723L22.4542 14.0205C22.7007 14.0307 22.9403 13.9449 23.1201 13.782C23.2998 13.6191 23.4048 13.3925 23.4119 13.1524C23.42 13.1229 23.4231 13.0922 23.4211 13.0616C23.1389 7.94258 19.1475 3.71546 13.9303 3.01052Z" fill="url(#g1_w)"/>
  </g>
  <g filter="url(#f3d_w)">
    <ellipse cx="12.3187" cy="13.7005" rx="1.52546" ry="1.5528" fill="url(#g2_w)"/>
    <path d="M12.3186 12.3479C13.0473 12.3479 13.6438 12.95 13.6438 13.7004C13.6438 14.4509 13.0473 15.053 12.3186 15.053C11.59 15.0529 10.9934 14.4509 10.9934 13.7004C10.9935 12.95 11.59 12.3479 12.3186 12.3479Z" stroke="url(#g3_w)" stroke-width="0.4"/>
  </g>
</g>
</svg>